<svg width="158" height="92" viewBox="0 0 158 92" fill="none" xmlns="http://www.w3.org/2000/svg">
<path d="M0.0405736 8.53308C0.0282438 7.41378 0.187418 6.29909 0.512691 5.22688C0.83305 4.23078 1.34107 3.30351 2.00999 2.49394C2.65887 1.7176 3.47444 1.09371 4.39756 0.667531C5.40454 0.213079 6.50109 -0.014597 7.60797 0.000959344C8.43735 -0.0123987 9.26298 0.113828 10.0495 0.374238C10.674 0.593396 11.2574 0.913231 11.7761 1.32077C12.2243 1.66827 12.6155 2.08196 12.9362 2.54726C13.2045 2.94068 13.4305 3.36067 13.6106 3.80042C13.7477 4.12962 13.8604 4.46824 13.9479 4.8136C13.9479 5.09356 14.0288 5.25354 14.0288 5.28021H13.0441C12.8616 4.003 12.1906 2.84356 11.1691 2.04067C10.6726 1.66418 10.1166 1.37138 9.52343 1.17412C8.90529 0.974219 8.25833 0.875162 7.60797 0.880834C6.64108 0.862506 5.68375 1.07276 4.81572 1.49408C4.01099 1.89684 3.30272 2.46502 2.7384 3.16051C2.13829 3.88813 1.68082 4.72002 1.38949 5.61349C0.79617 7.56114 0.79617 9.63833 1.38949 11.586C1.68378 12.4741 2.14104 13.3011 2.7384 14.0256C3.30272 14.7211 4.01099 15.2893 4.81572 15.6921C5.68277 16.1175 6.64004 16.3323 7.60797 16.3186C8.3648 16.3201 9.11206 16.1514 9.79321 15.8254C10.4639 15.4919 11.0674 15.0401 11.5738 14.4922C12.0824 13.9375 12.4928 13.302 12.7878 12.6125C13.0957 11.9119 13.2739 11.1623 13.3139 10.3995H14.2986C14.2127 11.32 13.9758 12.2205 13.5971 13.0658C13.2427 13.8602 12.7496 14.5867 12.1403 15.2121C11.5557 15.8188 10.8526 16.3017 10.0735 16.6317C9.2944 16.9617 8.4556 17.1319 7.60797 17.1319C6.50109 17.1474 5.40454 16.9197 4.39756 16.4653C3.47444 16.0391 2.65887 15.4152 2.00999 14.6389C1.33958 13.8253 0.831492 12.8934 0.512691 11.8926C0.168065 10.8055 -0.00483097 9.6723 0.000102674 8.53308" transform="translate(34 42.5263)" fill="#1B1C20"/>
<path d="M0.984706 0H0V16.3977H0.984706V0Z" transform="translate(50.4031 42.8472)" fill="#1B1C20"/>
<path d="M0 0H1.40287L7.64834 15.2778H7.6888L13.8668 0H15.2697V16.411H14.285V1.23982H14.2445L8.16092 16.411H7.17622L1.02518 1.23982H0.984706V16.411H0V0Z" transform="translate(54.207 42.8472)" fill="#1B1C20"/>
<path d="M0 0H10.7373V0.879874H0.984706V7.45227H10.1573V8.31881H0.984706V15.5311H10.8587V16.411H0V0Z" transform="translate(72.296 42.8472)" fill="#1B1C20"/>
<path d="M9.14563 0C9.10407 0.36773 8.99432 0.724749 8.82188 1.05318C8.65313 1.37765 8.43474 1.67443 8.17441 1.93306C7.91817 2.18624 7.6162 2.38972 7.28412 2.53298C6.94724 2.67481 6.58467 2.74739 6.21849 2.74628C5.44285 2.77225 4.68451 2.5161 4.0872 2.02638C3.49944 1.5057 3.14116 0.778386 3.089 0H3.81742C3.89538 0.348943 4.03218 0.682441 4.22209 0.986529C4.38442 1.22185 4.58496 1.42905 4.81562 1.59977C5.02225 1.74871 5.25573 1.8573 5.50356 1.91973C5.72923 1.97114 5.95992 1.99797 6.19151 1.99972C6.47409 1.99659 6.75296 1.93576 7.01063 1.82105C7.26829 1.70634 7.49918 1.54023 7.6888 1.33314C8.06291 0.974032 8.31305 0.507578 8.40372 0H9.14563ZM11.1825 5.75918L1.20053 20.837H0V4.42604H0.944235V19.5706L10.8318 4.42604H12.0593V20.837H11.0746L11.1825 5.75918Z" transform="translate(84.8274 38.4211)" fill="#1B1C20"/>
<path d="M0 0H0.984711V7.45227H11.1825V0H12.1672V16.411H11.1825V8.31881H0.984711V16.411H0V0Z" transform="translate(99.8138 42.8472)" fill="#1B1C20"/>
<path d="M0.974313 8.46554C0.967882 9.47755 1.118 10.4846 1.41946 11.4518C1.70786 12.3424 2.1657 13.1705 2.76837 13.8914C3.33777 14.5872 4.05049 15.1553 4.85918 15.5579C5.72843 15.9704 6.68039 16.1846 7.64469 16.1846C8.60898 16.1846 9.56095 15.9704 10.4302 15.5579C11.2349 15.1551 11.9432 14.5869 12.5075 13.8914C13.1102 13.1705 13.568 12.3424 13.8564 11.4518C14.4497 9.50413 14.4497 7.42695 13.8564 5.4793C13.5711 4.58328 13.1131 3.7503 12.5075 3.02631C11.9432 2.33082 11.2349 1.76264 10.4302 1.35988C9.55832 0.956447 8.60739 0.747325 7.64469 0.747325C6.68199 0.747325 5.73105 0.956447 4.85918 1.35988C4.02619 1.75441 3.2898 2.32298 2.70092 3.02631C2.09535 3.7503 1.63728 4.58328 1.35201 5.4793C1.04951 6.44625 0.899368 7.45345 0.906863 8.46554H0.974313ZM15.1109 8.46554C15.1158 9.60476 14.943 10.7379 14.5983 11.8251C14.2747 12.7968 13.7716 13.7008 13.1145 14.4913C12.4923 15.2841 11.6999 15.9307 10.7944 16.3844C9.78492 16.824 8.69387 17.0511 7.59073 17.0511C6.48759 17.0511 5.39654 16.824 4.38706 16.3844C3.46208 15.955 2.64277 15.3318 1.986 14.558C1.32896 13.7675 0.82586 12.8635 0.502195 11.8917C-0.167398 9.71908 -0.167398 7.39863 0.502195 5.226C0.818178 4.23077 1.32161 3.30352 1.986 2.49305C2.64277 1.71926 3.46208 1.09604 4.38706 0.666648C5.39654 0.227035 6.48759 0 7.59073 0C8.69387 0 9.78492 0.227035 10.7944 0.666648C11.7175 1.09283 12.5331 1.71671 13.182 2.49305C13.8464 3.30352 14.3498 4.23077 14.6658 5.226C15.0116 6.31744 15.1845 7.45518 15.1784 8.59885" transform="translate(114.096 42.5938)" fill="#1B1C20"/>
<path d="M0 0H9.75264V0.879874H0.984711V16.411H0V0Z" transform="translate(131.378 42.8472)" fill="#1B1C20"/>
<path d="M0.974323 8.5322C0.967892 9.54421 1.118 10.5513 1.41946 11.5184C1.70786 12.4091 2.1657 13.2371 2.76837 13.9581C3.33777 14.6539 4.0505 15.222 4.85919 15.6245C5.72844 16.0371 6.68039 16.2513 7.64469 16.2513C8.60898 16.2513 9.56095 16.0371 10.4302 15.6245C11.2349 15.2218 11.9432 14.6536 12.5075 13.9581C13.1102 13.2371 13.568 12.4091 13.8564 11.5184C14.4498 9.57079 14.4498 7.49361 13.8564 5.54596C13.5712 4.64994 13.1131 3.81696 12.5075 3.09297C11.9199 2.38841 11.1832 1.81961 10.3493 1.42654C9.47739 1.02311 8.52646 0.813986 7.56376 0.813986C6.60106 0.813986 5.65013 1.02311 4.77826 1.42654C3.96957 1.8291 3.25684 2.39716 2.68744 3.09297C2.08186 3.81696 1.6238 4.64994 1.33853 5.54596C1.03603 6.51291 0.885886 7.52011 0.893381 8.5322H0.974323ZM15.0974 8.5322C15.1286 9.66728 14.983 10.8004 14.6658 11.8917C14.3484 12.8661 13.8447 13.7713 13.182 14.558C12.5331 15.3343 11.7175 15.9582 10.7944 16.3844C9.78493 16.824 8.69388 17.0511 7.59074 17.0511C6.4876 17.0511 5.39655 16.824 4.38707 16.3844C3.46395 15.9582 2.64837 15.3343 1.99949 14.558C1.33201 13.7724 0.823674 12.8672 0.502195 11.8917C-0.167398 9.71909 -0.167398 7.39863 0.502195 5.226C0.815702 4.22703 1.3244 3.29853 1.99949 2.49306C2.64837 1.71672 3.46395 1.09283 4.38707 0.666653C5.39655 0.22704 6.4876 0 7.59074 0C8.69388 0 9.78493 0.22704 10.7944 0.666653C11.7175 1.09283 12.5331 1.71672 13.182 2.49306C13.8523 3.29964 14.3563 4.22807 14.6658 5.226C15.0116 6.31744 15.1845 7.45518 15.1784 8.59885" transform="translate(141.519 42.5272)" fill="#1B1C20"/>
<path d="M13.4891 16.3043V1.4398H6.0836V2.03971C6.0836 3.02623 6.0836 4.10608 6.0836 5.27925C6.0537 6.48762 5.95914 7.69357 5.80032 8.89207C5.63523 10.1597 5.38742 11.4155 5.05842 12.6515C4.75007 13.9157 4.29754 15.1411 3.70951 16.3043H13.4891ZM0 16.3043H1.80754C2.41667 15.1695 2.89624 13.9712 3.23739 12.7315C3.59209 11.5502 3.87142 10.348 4.07372 9.13203C4.23559 7.91887 4.3435 6.7457 4.38397 5.5992C4.42443 4.4527 4.38397 3.38618 4.38397 2.37299V0H15.0808V16.3043H17.1447V22.4635H15.553V17.7441H1.71312V22.4635H0.0674446L0 16.3043Z" transform="translate(35.7134 69.2834)" fill="#1B1C20"/>
<path d="M8.10677 16.9862C9.12346 17.0087 10.1297 16.7796 11.0339 16.3196C11.8339 15.8906 12.522 15.2836 13.0438 14.5465C13.5993 13.791 14.0107 12.9417 14.2578 12.0402C14.5135 11.1105 14.6406 10.1508 14.6355 9.1873C14.6379 8.22838 14.5109 7.27344 14.2578 6.34771C14.0272 5.44996 13.6342 4.60085 13.0977 3.84139C12.576 3.1043 11.8879 2.49728 11.0879 2.06831C9.77868 1.35814 8.25166 1.14641 6.79527 1.47309C5.33888 1.79977 4.05396 2.64225 3.18324 3.84139C2.64677 4.60085 2.25375 5.44996 2.02317 6.34771C1.7701 7.27344 1.64309 8.22838 1.64548 9.1873C1.64041 10.1508 1.76746 11.1105 2.02317 12.0402C2.25375 12.938 2.64677 13.7871 3.18324 14.5465C3.71352 15.281 4.40529 15.8872 5.20661 16.3196C6.11927 16.7829 7.13507 17.0121 8.16073 16.9862H8.10677ZM8.16073 18.426C6.92538 18.4533 5.70086 18.193 4.58611 17.6661C3.59257 17.1892 2.72102 16.4965 2.03666 15.6397C1.34473 14.7666 0.827419 13.7712 0.512391 12.7068C-0.170797 10.4227 -0.170797 7.99194 0.512391 5.7078C0.818585 4.65835 1.31693 3.6733 1.98271 2.80154C2.66658 1.94088 3.538 1.24369 4.53215 0.761835C5.6469 0.23497 6.87142 -0.0253384 8.10677 0.00194327C9.33344 -0.0251546 10.5492 0.235249 11.6544 0.761835C12.6658 1.24046 13.5555 1.93752 14.2578 2.80154C14.9419 3.68449 15.4584 4.68272 15.7821 5.74779C16.4473 8.03447 16.4473 10.4601 15.7821 12.7468C15.4568 13.7949 14.9402 14.7754 14.2578 15.6397C13.5705 16.4936 12.6997 17.1858 11.7084 17.6661C10.6031 18.1927 9.3874 18.4531 8.16073 18.426" transform="translate(53.9777 68.9482)" fill="#1B1C20"/>
<path d="M6.86664 18.4908C5.89273 18.5056 4.92271 18.3661 3.99346 18.0775C3.1932 17.8373 2.45318 17.433 1.82171 16.891C1.23397 16.3576 0.773264 15.7019 0.472796 14.9713C0.148569 14.1612 -0.0118262 13.2961 0.000678736 12.425V12.2784H1.63286C1.57769 12.9579 1.68162 13.6409 1.9366 14.2744C2.19158 14.9079 2.59075 15.4748 3.10317 15.9312C4.23613 16.7682 5.62929 17.1878 7.04201 17.1177C7.71375 17.1287 8.38167 17.0157 9.01142 16.7844C9.55521 16.585 10.0513 16.2763 10.4682 15.8779C10.8624 15.4996 11.1745 15.046 11.3855 14.5447C11.612 14.0413 11.7269 13.4959 11.7227 12.9449C11.7173 12.4837 11.6115 12.029 11.4125 11.6118C11.221 11.1933 10.9349 10.8239 10.5762 10.5319C10.2104 10.2224 9.78955 9.98285 9.33515 9.82538C8.82735 9.62839 8.28876 9.52013 7.74344 9.50543H5.04561V8.07896H7.74344C8.201 8.08407 8.65643 8.01655 9.09235 7.87899C9.49386 7.75107 9.86861 7.55233 10.1985 7.2924C10.5266 7.03572 10.7898 6.70711 10.9673 6.33255C11.1613 5.91464 11.2581 5.45911 11.2506 4.99941C11.2612 4.45217 11.1459 3.9097 10.9134 3.41296C10.7101 2.98301 10.4102 2.60457 10.0366 2.30645C9.63682 2.00285 9.17742 1.78492 8.68768 1.66655C8.14503 1.53617 7.58643 1.4823 7.02851 1.50657C6.38987 1.49925 5.7536 1.5846 5.14003 1.75987C4.59148 1.90763 4.078 2.16137 3.62926 2.50642C3.18735 2.86288 2.84009 3.32049 2.61757 3.83957C2.34999 4.38079 2.19844 4.97083 2.17243 5.57266H0.553728C0.587225 4.74884 0.779521 3.9389 1.12028 3.18633C1.4413 2.52875 1.90128 1.94686 2.46919 1.47991C3.06042 1.01519 3.73894 0.670831 4.46558 0.466716C5.29155 0.185679 6.15543 0.0284053 7.02851 0.000117682C7.79742 -0.00380369 8.56363 0.0902912 9.30818 0.280077C9.98203 0.458456 10.6174 0.756605 11.1832 1.15995C11.7124 1.55714 12.1379 2.07366 12.4242 2.6664C12.7518 3.3394 12.9135 4.07946 12.8963 4.82609C12.9017 5.28049 12.824 5.73213 12.667 6.15923C12.5368 6.55311 12.3408 6.92263 12.0869 7.25241C11.8558 7.57069 11.5785 7.85368 11.2641 8.0923C10.9848 8.30771 10.676 8.48277 10.3468 8.61222V8.69221C11.2194 8.90544 11.9911 9.40917 12.5321 10.1187C13.1204 10.9474 13.4102 11.9474 13.3549 12.9583C13.3468 13.5684 13.2327 14.1727 13.0177 14.7447C12.7929 15.4152 12.43 16.0325 11.952 16.5578C11.3946 17.1624 10.7143 17.6439 9.95565 17.9709C8.99191 18.3716 7.95218 18.5626 6.90712 18.5308" transform="translate(71.9985 68.91)" fill="#1B1C20"/>
<path d="M7.31111 16.2779C7.89499 16.28 8.47773 16.2264 9.0512 16.1179C9.57096 16.0184 10.0659 15.8191 10.508 15.5313C10.9275 15.2472 11.2665 14.8617 11.4927 14.4115C11.7549 13.8527 11.8798 13.2406 11.8569 12.6251C11.8911 12.1338 11.8019 11.6418 11.5971 11.1929C11.3924 10.744 11.0785 10.3521 10.6834 10.0521C9.68157 9.41518 8.49994 9.11155 7.31111 9.18555H1.64568V16.2779H7.31111ZM7.31111 7.77242C7.88586 7.78013 8.45861 7.70377 9.01074 7.54579C9.46074 7.41313 9.87848 7.19081 10.2382 6.89254C10.5553 6.63486 10.8051 6.30568 10.9667 5.93269C11.1296 5.56736 11.2123 5.17207 11.2095 4.77285C11.2095 2.5465 9.86055 1.43999 7.31111 1.43999H1.64568V7.77242H7.31111ZM0 0.000190527H7.31111C8.01383 -0.0042008 8.71493 0.0673297 9.40192 0.213498C10.0346 0.331523 10.636 0.576539 11.169 0.933397C11.6806 1.26986 12.0982 1.72837 12.383 2.26654C12.9332 3.32003 13.0493 4.54318 12.7068 5.67939C12.5703 6.10458 12.3654 6.50523 12.0998 6.86588C11.8407 7.22 11.5212 7.52677 11.1555 7.77242C10.7873 8.02816 10.3693 8.20524 9.928 8.29235V8.29235C10.9675 8.37652 11.934 8.85411 12.6258 9.62549C13.3017 10.4491 13.6559 11.4851 13.624 12.5451C13.6182 13.0519 13.5594 13.5567 13.4487 14.0515C13.2978 14.6905 12.987 15.2818 12.5449 15.7713C12.0417 16.3569 11.4032 16.8142 10.6834 17.1044C9.62205 17.509 8.48825 17.695 7.35157 17.651H0.0404657L0 0.000190527Z" transform="translate(87.903 69.3099)" fill="#1B1C20"/>
<path d="M1.64568 0H0V17.7441H1.64568V0Z" transform="translate(104.211 69.2834)" fill="#1B1C20"/>
<path d="M1.40287 17.8908H1.05215H0.633991H0.242805H0V16.251C0.184504 16.3444 0.386603 16.3988 0.593515 16.411H1.18704C1.39804 16.4274 1.61003 16.4274 1.82103 16.411C2.11289 16.3453 2.37687 16.1916 2.57642 15.9711C2.91323 15.6095 3.18675 15.195 3.38576 14.7446C3.71037 13.978 3.9457 13.1774 4.0872 12.3582C4.32471 11.0351 4.48683 9.69988 4.57281 8.35881C4.7077 6.75903 4.77515 4.81265 4.77515 2.47965V0H15.3911V17.7441H13.7454V1.4398H6.36687V2.46631C6.36687 5.03928 6.28594 7.22564 6.12407 8.98539C6.00676 10.4556 5.79045 11.9164 5.47658 13.3581C5.27802 14.2812 4.96543 15.1767 4.54583 16.0244C4.28135 16.5328 3.91942 16.9856 3.48019 17.3575C3.16898 17.6184 2.79084 17.7891 2.38757 17.8508C2.06176 17.9012 1.73264 17.9279 1.40287 17.9308" transform="translate(107.611 69.2834)" fill="#1B1C20"/>
<path d="M1.40287 17.8908H1.05215H0.633991H0.242805H0V16.251C0.183752 16.3463 0.386283 16.4009 0.593525 16.411H1.18704C1.39804 16.4274 1.61003 16.4274 1.82103 16.411C2.1116 16.3421 2.37469 16.1889 2.57643 15.9711C2.91289 15.6119 3.18233 15.1966 3.37228 14.7446C3.70313 13.9802 3.93867 13.1788 4.07371 12.3582C4.31659 11.0355 4.48323 9.70022 4.57281 8.35881C4.7077 6.75903 4.77515 4.81265 4.77515 2.47965V0H15.3911V17.7441H13.7319V1.4398H6.35338V2.46631C6.35338 5.03928 6.27244 7.22564 6.11057 8.98539C5.99327 10.4556 5.77697 11.9164 5.4631 13.3581C5.26454 14.2812 4.95195 15.1767 4.53235 16.0244C4.26346 16.53 3.90215 16.982 3.46671 17.3575C3.1555 17.6184 2.77736 17.7891 2.37409 17.8508C2.04827 17.9012 1.71915 17.9279 1.38938 17.9308" transform="translate(124.647 69.2834)" fill="#1B1C20"/>
<path d="M11.7625 8.70626V1.42729H6.54224C5.48656 1.37084 4.45046 1.72493 3.65556 2.41382C3.30062 2.76095 3.02259 3.17724 2.83914 3.63625C2.65568 4.09525 2.57082 4.58695 2.58992 5.0801C2.56034 5.57441 2.64038 6.06914 2.82445 6.52969C3.00852 6.99023 3.29217 7.40549 3.65556 7.74639C4.46544 8.40402 5.49568 8.73707 6.54224 8.67959L11.7625 8.70626ZM5.90824 10.0394C5.23405 10.0135 4.56874 9.87838 3.93883 9.63945C3.35033 9.42639 2.81293 9.09502 2.3606 8.66626C1.91299 8.24543 1.55923 7.73687 1.32194 7.17314C1.06282 6.51939 0.934553 5.82215 0.944245 5.1201C0.932043 4.39301 1.0555 3.66993 1.30845 2.98707C1.53233 2.37819 1.89192 1.82688 2.3606 1.37397C2.83351 0.928867 3.39355 0.584068 4.00627 0.360774C4.70185 0.110644 5.43793 -0.0113509 6.17802 0.000829924H13.4082V17.7316H11.7625V10.1194H7.89115L2.13128 17.7316H0L5.90824 10.0394Z" transform="translate(141.873 69.2959)" fill="#1B1C20"/>
<path d="M111.623 14.4246C118.367 14.4246 122.279 18.3174 122.279 25.0898C122.279 31.8621 118.381 35.6349 111.623 35.6349H95.4356V0H119.163V4.09275H100.008V14.4246H111.623ZM100.049 31.5155H110.112C115.17 31.5155 117.706 29.4091 117.706 25.0631C117.706 20.7171 115.224 18.424 110.112 18.424H100.049V31.5155ZM75.7684 26.3163L75.1884 27.5694C74.0149 30.0624 72.4906 32.462 70.0356 32.462C68.674 32.547 67.3175 32.2316 66.1372 31.5555V35.5549C67.4929 36.1327 68.9505 36.4407 70.4267 36.4615C73.826 36.4615 76.6992 34.4618 79.6128 28.3693L93.102 0.039994H88.1919L78.2639 21.7169L68.1875 0H63.1426L75.7684 26.3163ZM60.0941 0H38.3631L37.7291 21.6769C37.4863 30.7156 35.6787 32.1154 33.1967 32.1154C32.3426 32.1354 31.4947 31.9669 30.7147 31.6222V35.6216C31.7763 36.0265 32.8966 36.2605 34.0331 36.3148C39.2803 36.3148 41.8163 31.2755 42.0591 24.1299L42.7336 4.13275H55.5213V35.5683H60.0941V0ZM13.5296 14.2913L28.6914 35.6216H22.8641L10.3192 17.4908L4.57281 23.0767V35.5683H0V0H4.57281V17.6375L22.1087 0H28.0844L13.5296 14.2913Z" transform="translate(35.1199)" fill="#1B1C20"/>
<path d="M0 0V69.6582L0.881952 68.7848L12.7505 56.9873L24.6065 68.7848L25.4884 69.6582V0H0Z" fill="#C60023"/>
<path d="M11.8685 0L0 11.8101V23.0886H8.58013V13.2279H15.1444V23.0886H23.7245V11.7975L11.8685 0Z" transform="translate(0.881958 63.4178)" fill="#C60023"/>
</svg>
